<svg width="31" height="39" viewBox="0 0 31 39" fill="none" xmlns="http://www.w3.org/2000/svg">
<path d="M16.8763 23.9406H8.5123C7.62375 23.9387 6.74424 24.119 5.92814 24.4704C5.11203 24.8218 4.37667 25.3368 3.76749 25.9837C3.15832 26.6305 2.68828 27.3955 2.38643 28.2312C2.08459 29.0669 1.95734 29.9556 2.01256 30.8424C2.06778 31.7293 2.3043 32.5953 2.70749 33.3871C3.11068 34.1789 3.67198 34.8797 4.35669 35.4459C5.0414 36.0122 5.83499 36.4321 6.68838 36.6795C7.54178 36.927 8.43686 36.9968 9.3183 36.8846L10.4323 36.7446C12.2105 36.5216 13.8463 35.6573 15.0327 34.3141C16.2191 32.9708 16.8746 31.2408 16.8763 29.4486V10.7206C16.8763 7.48261 16.8763 5.86461 17.8243 4.74661C18.7723 3.62861 20.3683 3.36061 23.5603 2.82661L28.2763 2.04061C28.5483 1.99661 28.6843 1.97261 28.7563 2.05261C28.8283 2.13261 28.7963 2.26461 28.7303 2.53261L26.9403 9.69461C26.9103 9.81461 26.8943 9.87461 26.8523 9.91461C26.8103 9.95461 26.7523 9.96661 26.6303 9.99061L16.8763 11.9406" stroke="#CCE8E4" stroke-width="4"/>
</svg>
