<svg width="42" height="36" viewBox="0 0 42 36" fill="none" xmlns="http://www.w3.org/2000/svg">
<path fill-rule="evenodd" clip-rule="evenodd" d="M40.5 0H24L22.95 0.45L21 2.37L19.05 0.45L18 0H1.5L0 1.5V31.5L1.5 33H17.37L19.95 35.55H22.05L24.63 33H40.5L42 31.5V1.5L40.5 0ZM19.5 30.96L18.96 30.45L18 30H3V3H17.37L19.59 5.22L19.5 30.96ZM39 30H24L22.95 30.45L22.53 30.84V5.1L24.63 3H39V30ZM15 9H6V12H15V9ZM15 21H6V24H15V21ZM6 15H15V18H6V15ZM36 9H27V12H36V9ZM27 15H36V18H27V15ZM27 21H36V24H27V21Z" fill="#CCE8E4"/>
</svg>
