<svg width="28" height="31" viewBox="0 0 28 31" fill="none" xmlns="http://www.w3.org/2000/svg">
<path d="M0 28.77V11.386C0 10.874 0.114667 10.3893 0.344 9.932C0.573333 9.47467 0.889333 9.098 1.292 8.802L12.062 0.646001C12.626 0.215334 13.27 0 13.994 0C14.718 0 15.366 0.215334 15.938 0.646001L26.708 8.8C27.112 9.096 27.428 9.47333 27.656 9.932C27.8853 10.3893 28 10.874 28 11.386V28.77C28 29.306 27.8007 29.7733 27.402 30.172C27.0033 30.5707 26.536 30.77 26 30.77H19.232C18.7733 30.77 18.3893 30.6153 18.08 30.306C17.7707 29.9953 17.616 29.6113 17.616 29.154V19.616C17.616 19.1587 17.4613 18.7753 17.152 18.466C16.8413 18.1553 16.4573 18 16 18H12C11.5427 18 11.1593 18.1553 10.85 18.466C10.5393 18.7753 10.384 19.1587 10.384 19.616V29.156C10.384 29.6133 10.2293 29.9967 9.92 30.306C9.61067 30.6153 9.22733 30.77 8.77 30.77H2C1.464 30.77 0.996666 30.5707 0.598 30.172C0.199333 29.7733 0 29.306 0 28.77Z" fill="#CCE8E4"/>
</svg>
