<svg width="39" height="40" viewBox="0 0 39 40" fill="none" xmlns="http://www.w3.org/2000/svg">
<path d="M16.69 40C15.79 40 15.0153 39.7 14.366 39.1C13.7167 38.5 13.3247 37.7667 13.19 36.9L12.74 33.6C12.3067 33.4333 11.8987 33.2333 11.516 33C11.1333 32.7667 10.758 32.5167 10.39 32.25L7.29 33.55C6.45667 33.9167 5.62333 33.95 4.79 33.65C3.95667 33.35 3.30667 32.8167 2.84 32.05L0.49 27.95C0.023333 27.1833 -0.11 26.3667 0.0900001 25.5C0.29 24.6333 0.74 23.9167 1.44 23.35L4.09 21.35C4.05667 21.1167 4.04 20.8913 4.04 20.674V19.324C4.04 19.108 4.05667 18.8833 4.09 18.65L1.44 16.65C0.74 16.0833 0.29 15.3667 0.0900001 14.5C-0.11 13.6333 0.023333 12.8167 0.49 12.05L2.84 7.95C3.30667 7.18333 3.95667 6.65 4.79 6.35C5.62333 6.05 6.45667 6.08333 7.29 6.45L10.39 7.75C10.7567 7.48333 11.14 7.23333 11.54 7C11.94 6.76667 12.34 6.56667 12.74 6.4L13.19 3.1C13.3233 2.23333 13.7153 1.5 14.366 0.9C15.0167 0.3 15.7913 0 16.69 0H21.39C22.29 0 23.0653 0.3 23.716 0.9C24.3667 1.5 24.758 2.23333 24.89 3.1L25.34 6.4C25.7733 6.56667 26.182 6.76667 26.566 7C26.95 7.23333 27.3247 7.48333 27.69 7.75L30.79 6.45C31.6233 6.08333 32.4567 6.05 33.29 6.35C34.1233 6.65 34.7733 7.18333 35.24 7.95L37.59 12.05C38.0567 12.8167 38.19 13.6333 37.99 14.5C37.79 15.3667 37.34 16.0833 36.64 16.65L33.99 18.65C34.0233 18.8833 34.04 19.1087 34.04 19.326V20.674C34.04 20.8913 34.0067 21.1167 33.94 21.35L36.59 23.35C37.29 23.9167 37.74 24.6333 37.94 25.5C38.14 26.3667 38.0067 27.1833 37.54 27.95L35.14 32.05C34.6733 32.8167 34.0233 33.35 33.19 33.65C32.3567 33.95 31.5233 33.9167 30.69 33.55L27.69 32.25C27.3233 32.5167 26.94 32.7667 26.54 33C26.14 33.2333 25.74 33.4333 25.34 33.6L24.89 36.9C24.7567 37.7667 24.3653 38.5 23.716 39.1C23.0667 39.7 22.2913 40 21.39 40H16.69ZM19.14 27C21.0733 27 22.7233 26.3167 24.09 24.95C25.4567 23.5833 26.14 21.9333 26.14 20C26.14 18.0667 25.4567 16.4167 24.09 15.05C22.7233 13.6833 21.0733 13 19.14 13C17.1733 13 15.5147 13.6833 14.164 15.05C12.8133 16.4167 12.1387 18.0667 12.14 20C12.1413 21.9333 12.8167 23.5833 14.166 24.95C15.5153 26.3167 17.1733 27 19.14 27Z" fill="#CCE8E4"/>
</svg>
