<svg width="38" height="33" viewBox="0 0 38 33" fill="none" xmlns="http://www.w3.org/2000/svg">
<path d="M9.44722 33C6.8407 33 4.61489 32.0672 2.76978 30.2018C0.924666 28.3363 0.00140741 26.0852 0 23.4485C0 20.8545 0.896519 18.6305 2.68956 16.7764C4.48259 14.9223 6.66196 13.9668 9.22767 13.9099C9.49789 13.9099 9.76882 13.9305 10.0404 13.9718C10.3107 14.0131 10.5809 14.0607 10.8511 14.1148L5.14689 2.47804C4.84852 1.90317 4.86119 1.3461 5.18489 0.806803C5.50859 0.268934 5.99415 0 6.64156 0H11.8644C12.5119 0 13.1065 0.172175 13.6483 0.516525C14.1916 0.860875 14.6159 1.32048 14.9213 1.89535L19 10.1768L23.0744 1.89535C23.3813 1.32048 23.8063 0.860875 24.3496 0.516525C24.8914 0.172175 25.486 0 26.1334 0H31.3226C31.97 0 32.4619 0.268934 32.7982 0.806803C33.1346 1.34752 33.1543 1.9046 32.8573 2.47804L27.1996 13.9675C27.4444 13.912 27.6957 13.8708 27.9532 13.8437C28.2094 13.8153 28.4733 13.801 28.7449 13.801C31.3289 13.8679 33.5174 14.8284 35.3104 16.6825C37.1035 18.5366 38 20.7741 38 23.3952C38 26.066 37.0774 28.3349 35.2323 30.2018C33.3872 32.0687 31.1431 33.0014 28.5 33C28.1017 33 27.695 32.9772 27.2798 32.9317C26.8646 32.8876 26.4719 32.8022 26.1018 32.6755C27.7653 31.9427 28.9328 30.697 29.6041 28.9382C30.2754 27.1795 30.6111 25.3318 30.6111 23.3952C30.6111 20.1196 29.4859 17.3441 27.2354 15.0689C24.985 12.7936 22.2399 11.656 19 11.656C15.7601 11.656 13.015 12.7936 10.7646 15.0689C8.51411 17.3441 7.38889 20.1196 7.38889 23.3952C7.38889 25.3489 7.69852 27.2286 8.31778 29.0343C8.93704 30.8414 10.1263 32.0551 11.8856 32.6755C11.4887 32.8022 11.0897 32.8876 10.6886 32.9317C10.2874 32.9758 9.87367 32.9986 9.44722 33ZM19 33C16.3611 33 14.1184 32.0665 12.2719 30.1996C10.4254 28.3328 9.50141 26.0646 9.5 23.3952C9.49859 20.7257 10.4226 18.4583 12.2719 16.5928C14.1212 14.7274 16.3639 13.7932 19 13.7904C21.6361 13.7875 23.8795 14.7217 25.7302 16.5928C27.581 18.464 28.5042 20.7314 28.5 23.3952C28.4958 26.0589 27.5725 28.3271 25.7302 30.1996C23.8879 32.0722 21.6445 33.0057 19 33ZM19 25.743L21.261 27.4719C21.4454 27.5942 21.6157 27.5964 21.7719 27.4783C21.9281 27.3602 21.9717 27.2037 21.9028 27.0087L21.0626 24.1614L23.2834 22.5414C23.4664 22.419 23.5227 22.2625 23.4523 22.0718C23.382 21.8812 23.2469 21.7858 23.047 21.7858H20.2878L19.4053 18.8105C19.335 18.617 19.1999 18.5202 19 18.5202C18.8001 18.5202 18.665 18.617 18.5947 18.8105L17.7143 21.7858H14.953C14.7531 21.7858 14.618 21.8812 14.5477 22.0718C14.4773 22.2625 14.5336 22.419 14.7166 22.5414L16.9374 24.1636L16.0972 27.0066C16.0269 27.2015 16.0705 27.358 16.2281 27.4761C16.3857 27.5943 16.556 27.5928 16.739 27.4719L19 25.743Z" fill="#CCE8E4"/>
</svg>
